<svg width="23" height="22" viewBox="0 0 23 22" fill="none" xmlns="http://www.w3.org/2000/svg">
<mask id="mask0_50_12" style="mask-type:luminance" maskUnits="userSpaceOnUse" x="0" y="0" width="24" height="22">
<path d="M2.00355 10.1346C1.99219 10.0038 2.00815 9.87203 2.05041 9.74772C2.09267 9.62341 2.1603 9.50924 2.24903 9.41245C2.33775 9.31567 2.44562 9.23838 2.5658 9.1855C2.68597 9.13262 2.81583 9.10529 2.94713 9.10526H4.75613C5.00739 9.10526 5.24835 9.20507 5.42602 9.38274C5.60369 9.56041 5.7035 9.80137 5.7035 10.0526V19.0526C5.7035 19.3039 5.60369 19.5449 5.42602 19.7225C5.24835 19.9002 5.00739 20 4.75613 20H3.73013C3.49302 20.0001 3.2645 19.9112 3.08972 19.751C2.91493 19.5907 2.80659 19.3708 2.78608 19.1346L2.00355 10.1346ZM8.5456 9.75658C8.5456 9.36058 8.79192 9.00626 9.14955 8.83763C9.93066 8.4691 11.2612 7.72873 11.8614 6.72784C12.6349 5.43752 12.7808 3.10652 12.8045 2.57268C12.8078 2.49784 12.8059 2.423 12.8159 2.3491C12.9442 1.424 14.7296 2.50447 15.414 3.647C15.7859 4.26658 15.8332 5.08084 15.7944 5.717C15.7522 6.39721 15.5528 7.05421 15.3572 7.70695L14.9403 9.09816H20.0831C20.2295 9.09815 20.3739 9.13205 20.505 9.19722C20.636 9.26238 20.7502 9.35703 20.8385 9.47373C20.9269 9.59044 20.987 9.72603 21.0141 9.86986C21.0413 10.0137 21.0347 10.1619 20.995 10.3027L18.4513 19.3103C18.3951 19.509 18.2756 19.6839 18.1109 19.8084C17.9463 19.9328 17.7454 20.0001 17.539 20H9.49297C9.24172 20 9.00075 19.9002 8.82308 19.7225C8.64542 19.5449 8.5456 19.3039 8.5456 19.0526V9.75658Z" fill="white" stroke="white" stroke-width="4" stroke-linecap="round" stroke-linejoin="round"/>
</mask>
<g mask="url(#mask0_50_12)">
<path d="M0.0192871 -0.368408H22.7561V22.3684H0.0192871V-0.368408Z" fill="black"/>
</g>
</svg>
